<?xml version="1.0" encoding="UTF-8"?>
<svg id="_레이어_1" data-name="레이어 1" xmlns="http://www.w3.org/2000/svg" version="1.1" viewBox="0 0 105 14">
  <defs>
    <style>
      .cls-1 {
        fill: #000;
        stroke-width: 0px;
      }
    </style>
  </defs>
  <polygon class="cls-1" points="103.4 -11.9 103.4 -11.9 103.4 -11.9 103.4 -11.9"/>
  <polygon class="cls-1" points="103.4 -11.9 103.4 -11.9 103.4 -11.9 103.4 -11.9"/>
  <polygon class="cls-1" points="53.9 5.6 53.7 5.6 54.7 2.8 59.4 2.8 58.4 5.6 61.2 5.6 62.2 2.8 60.5 .2 60.4 0 55.7 0 51.9 2.8 48.1 14 50.9 14 52.8 8.4 57.5 8.4 55.6 14 58.3 14 60.3 8.4 58.4 5.6 53.9 5.6"/>
  <polygon class="cls-1" points="48.9 8.4 49.8 5.6 43.2 5.6 42.2 8.4 48.9 8.4"/>
  <polygon class="cls-1" points="40.4 14 47 14 48 11.2 41.3 11.2 40.4 14"/>
  <polygon class="cls-1" points="16.9 8.4 23.7 8.4 24.7 5.6 17.9 5.6 16.9 8.4"/>
  <polygon class="cls-1" points="15 14 21.8 14 22.7 11.2 15.9 11.2 15 14"/>
  <polygon class="cls-1" points="50.9 2.8 51.9 0 44.1 0 40.4 2.8 37.9 9.9 34.7 0 31.9 0 36.5 14 39.3 14 43.1 2.8 50.9 2.8"/>
  <polygon class="cls-1" points="7.9 4.3 6 9.9 2.8 0 0 0 4.6 14 7.4 14 10.7 4.3 7.9 4.3"/>
  <polygon class="cls-1" points="25.6 2.8 26.6 0 18.8 0 15.1 2.8 12.7 9.9 11.3 5.6 9.9 9.7 11.3 14 14 14 17.9 2.8 25.6 2.8"/>
  <polygon class="cls-1" points="30.7 0 27.9 0 23.1 14 25.9 14 29.3 4.1 30.7 8.5 29 8.5 28.1 11.2 31.6 11.2 33.5 8.5 30.7 0 30.7 0"/>
  <polygon class="cls-1" points="94.1 4.3 92.2 9.9 90.4 4.6 89 8.7 90.8 14 93.6 14 96.9 4.3 94.1 4.3"/>
  <path class="cls-1" d="M88.4.5l-.2-.3h0s-.1-.2-.1-.2h-4.8l-3.7,2.8-2.9,8.5,1.8,2.8h4.8l3.7-2.8,1-2.8.5-1.5,1.4-4.1-1.5-2.2ZM84.2,11.2h-4.8s0,0,0,0l2.9-8.4h0c0,0,4.6,0,4.6,0h.2l-2.9,8.5Z"/>
  <polygon class="cls-1" points="105 0 102.3 0 98.8 9.9 97.5 5.6 96.1 9.7 97.4 14 100.2 14 105 0 105 0 105 0"/>
  <polygon class="cls-1" points="79.3 0 76.5 0 73.2 9.1 70.8 0 68.1 0 68.1 0 68.1 0 63.2 14 66 14 66 14 66 14 69.2 5.1 71.3 14 74.5 14 79.3 0 79.3 0"/>
</svg>